HIERARCHY
ROOT p1
{
	OFFSET 0.000000 0.000000 0.000000
	CHANNELS 3 Xposition Yposition Zposition
	End Site
	{
		OFFSET 0.000000 0.000000 0.000000
	}
}
ROOT p2
{
	OFFSET 0.000000 0.000000 0.000000
	CHANNELS 3 Xposition Yposition Zposition
	End Site
	{
		OFFSET 0.000000 0.000000 0.000000
	}
}
ROOT p3
{
	OFFSET 0.000000 0.000000 0.000000
	CHANNELS 3 Xposition Yposition Zposition
	End Site
	{
		OFFSET 0.000000 0.000000 0.000000
	}
}
ROOT p4
{
	OFFSET 0.000000 0.000000 0.000000
	CHANNELS 3 Xposition Yposition Zposition
	End Site
	{
		OFFSET 0.000000 0.000000 0.000000
	}
}
ROOT p5
{
	OFFSET 0.000000 0.000000 0.000000
	CHANNELS 3 Xposition Yposition Zposition
	End Site
	{
		OFFSET 0.000000 0.000000 0.000000
	}
}
ROOT p6
{
	OFFSET 0.000000 0.000000 0.000000
	CHANNELS 3 Xposition Yposition Zposition
	End Site
	{
		OFFSET 0.000000 0.000000 0.000000
	}
}
ROOT p7
{
	OFFSET 0.000000 0.000000 0.000000
	CHANNELS 3 Xposition Yposition Zposition
	End Site
	{
		OFFSET 0.000000 0.000000 0.000000
	}
}
ROOT p8
{
	OFFSET 0.000000 0.000000 0.000000
	CHANNELS 3 Xposition Yposition Zposition
	End Site
	{
		OFFSET 0.000000 0.000000 0.000000
	}
}
ROOT p9
{
	OFFSET 0.000000 0.000000 0.000000
	CHANNELS 3 Xposition Yposition Zposition
	End Site
	{
		OFFSET 0.000000 0.000000 0.000000
	}
}
ROOT p10
{
	OFFSET 0.000000 0.000000 0.000000
	CHANNELS 3 Xposition Yposition Zposition
	End Site
	{
		OFFSET 0.000000 0.000000 0.000000
	}
}
ROOT p11
{
	OFFSET 0.000000 0.000000 0.000000
	CHANNELS 3 Xposition Yposition Zposition
	End Site
	{
		OFFSET 0.000000 0.000000 0.000000
	}
}
ROOT p12
{
	OFFSET 0.000000 0.000000 0.000000
	CHANNELS 3 Xposition Yposition Zposition
	End Site
	{
		OFFSET 0.000000 0.000000 0.000000
	}
}
ROOT p13
{
	OFFSET 0.000000 0.000000 0.000000
	CHANNELS 3 Xposition Yposition Zposition
	End Site
	{
		OFFSET 0.000000 0.000000 0.000000
	}
}
ROOT p14
{
	OFFSET 0.000000 0.000000 0.000000
	CHANNELS 3 Xposition Yposition Zposition
	End Site
	{
		OFFSET 0.000000 0.000000 0.000000
	}
}
ROOT p15
{
	OFFSET 0.000000 0.000000 0.000000
	CHANNELS 3 Xposition Yposition Zposition
	End Site
	{
		OFFSET 0.000000 0.000000 0.000000
	}
}
ROOT p16
{
	OFFSET 0.000000 0.000000 0.000000
	CHANNELS 3 Xposition Yposition Zposition
	End Site
	{
		OFFSET 0.000000 0.000000 0.000000
	}
}
ROOT p17
{
	OFFSET 0.000000 0.000000 0.000000
	CHANNELS 3 Xposition Yposition Zposition
	End Site
	{
		OFFSET 0.000000 0.000000 0.000000
	}
}
ROOT p18
{
	OFFSET 0.000000 0.000000 0.000000
	CHANNELS 3 Xposition Yposition Zposition
	End Site
	{
		OFFSET 0.000000 0.000000 0.000000
	}
}
ROOT p19
{
	OFFSET 0.000000 0.000000 0.000000
	CHANNELS 3 Xposition Yposition Zposition
	End Site
	{
		OFFSET 0.000000 0.000000 0.000000
	}
}
ROOT p20
{
	OFFSET 0.000000 0.000000 0.000000
	CHANNELS 3 Xposition Yposition Zposition
	End Site
	{
		OFFSET 0.000000 0.000000 0.000000
	}
}
ROOT p21
{
	OFFSET 0.000000 0.000000 0.000000
	CHANNELS 3 Xposition Yposition Zposition
	End Site
	{
		OFFSET 0.000000 0.000000 0.000000
	}
}
ROOT p22
{
	OFFSET 0.000000 0.000000 0.000000
	CHANNELS 3 Xposition Yposition Zposition
	End Site
	{
		OFFSET 0.000000 0.000000 0.000000
	}
}
ROOT p23
{
	OFFSET 0.000000 0.000000 0.000000
	CHANNELS 3 Xposition Yposition Zposition
	End Site
	{
		OFFSET 0.000000 0.000000 0.000000
	}
}
ROOT p24
{
	OFFSET 0.000000 0.000000 0.000000
	CHANNELS 3 Xposition Yposition Zposition
	End Site
	{
		OFFSET 0.000000 0.000000 0.000000
	}
}
ROOT p25
{
	OFFSET 0.000000 0.000000 0.000000
	CHANNELS 3 Xposition Yposition Zposition
	End Site
	{
		OFFSET 0.000000 0.000000 0.000000
	}
}
ROOT p26
{
	OFFSET 0.000000 0.000000 0.000000
	CHANNELS 3 Xposition Yposition Zposition
	End Site
	{
		OFFSET 0.000000 0.000000 0.000000
	}
}
ROOT p27
{
	OFFSET 0.000000 0.000000 0.000000
	CHANNELS 3 Xposition Yposition Zposition
	End Site
	{
		OFFSET 0.000000 0.000000 0.000000
	}
}
ROOT p28
{
	OFFSET 0.000000 0.000000 0.000000
	CHANNELS 3 Xposition Yposition Zposition
	End Site
	{
		OFFSET 0.000000 0.000000 0.000000
	}
}
ROOT p29
{
	OFFSET 0.000000 0.000000 0.000000
	CHANNELS 3 Xposition Yposition Zposition
	End Site
	{
		OFFSET 0.000000 0.000000 0.000000
	}
}
ROOT p30
{
	OFFSET 0.000000 0.000000 0.000000
	CHANNELS 3 Xposition Yposition Zposition
	End Site
	{
		OFFSET 0.000000 0.000000 0.000000
	}
}
ROOT p31
{
	OFFSET 0.000000 0.000000 0.000000
	CHANNELS 3 Xposition Yposition Zposition
	End Site
	{
		OFFSET 0.000000 0.000000 0.000000
	}
}
ROOT p32
{
	OFFSET 0.000000 0.000000 0.000000
	CHANNELS 3 Xposition Yposition Zposition
	End Site
	{
		OFFSET 0.000000 0.000000 0.000000
	}
}
ROOT p33
{
	OFFSET 0.000000 0.000000 0.000000
	CHANNELS 3 Xposition Yposition Zposition
	End Site
	{
		OFFSET 0.000000 0.000000 0.000000
	}
}
ROOT p34
{
	OFFSET 0.000000 0.000000 0.000000
	CHANNELS 3 Xposition Yposition Zposition
	End Site
	{
		OFFSET 0.000000 0.000000 0.000000
	}
}
ROOT p35
{
	OFFSET 0.000000 0.000000 0.000000
	CHANNELS 3 Xposition Yposition Zposition
	End Site
	{
		OFFSET 0.000000 0.000000 0.000000
	}
}
ROOT p36
{
	OFFSET 0.000000 0.000000 0.000000
	CHANNELS 3 Xposition Yposition Zposition
	End Site
	{
		OFFSET 0.000000 0.000000 0.000000
	}
}
ROOT p37
{
	OFFSET 0.000000 0.000000 0.000000
	CHANNELS 3 Xposition Yposition Zposition
	End Site
	{
		OFFSET 0.000000 0.000000 0.000000
	}
}
ROOT p38
{
	OFFSET 0.000000 0.000000 0.000000
	CHANNELS 3 Xposition Yposition Zposition
	End Site
	{
		OFFSET 0.000000 0.000000 0.000000
	}
}
ROOT p39
{
	OFFSET 0.000000 0.000000 0.000000
	CHANNELS 3 Xposition Yposition Zposition
	End Site
	{
		OFFSET 0.000000 0.000000 0.000000
	}
}
ROOT p40
{
	OFFSET 0.000000 0.000000 0.000000
	CHANNELS 3 Xposition Yposition Zposition
	End Site
	{
		OFFSET 0.000000 0.000000 0.000000
	}
}
ROOT p41
{
	OFFSET 0.000000 0.000000 0.000000
	CHANNELS 3 Xposition Yposition Zposition
	End Site
	{
		OFFSET 0.000000 0.000000 0.000000
	}
}
ROOT p42
{
	OFFSET 0.000000 0.000000 0.000000
	CHANNELS 3 Xposition Yposition Zposition
	End Site
	{
		OFFSET 0.000000 0.000000 0.000000
	}
}
ROOT p43
{
	OFFSET 0.000000 0.000000 0.000000
	CHANNELS 3 Xposition Yposition Zposition
	End Site
	{
		OFFSET 0.000000 0.000000 0.000000
	}
}
ROOT p44
{
	OFFSET 0.000000 0.000000 0.000000
	CHANNELS 3 Xposition Yposition Zposition
	End Site
	{
		OFFSET 0.000000 0.000000 0.000000
	}
}
ROOT p45
{
	OFFSET 0.000000 0.000000 0.000000
	CHANNELS 3 Xposition Yposition Zposition
	End Site
	{
		OFFSET 0.000000 0.000000 0.000000
	}
}
ROOT p46
{
	OFFSET 0.000000 0.000000 0.000000
	CHANNELS 3 Xposition Yposition Zposition
	End Site
	{
		OFFSET 0.000000 0.000000 0.000000
	}
}
ROOT p47
{
	OFFSET 0.000000 0.000000 0.000000
	CHANNELS 3 Xposition Yposition Zposition
	End Site
	{
		OFFSET 0.000000 0.000000 0.000000
	}
}
ROOT p48
{
	OFFSET 0.000000 0.000000 0.000000
	CHANNELS 3 Xposition Yposition Zposition
	End Site
	{
		OFFSET 0.000000 0.000000 0.000000
	}
}
ROOT p49
{
	OFFSET 0.000000 0.000000 0.000000
	CHANNELS 3 Xposition Yposition Zposition
	End Site
	{
		OFFSET 0.000000 0.000000 0.000000
	}
}
ROOT p50
{
	OFFSET 0.000000 0.000000 0.000000
	CHANNELS 3 Xposition Yposition Zposition
	End Site
	{
		OFFSET 0.000000 0.000000 0.000000
	}
}
ROOT p51
{
	OFFSET 0.000000 0.000000 0.000000
	CHANNELS 3 Xposition Yposition Zposition
	End Site
	{
		OFFSET 0.000000 0.000000 0.000000
	}
}
ROOT p52
{
	OFFSET 0.000000 0.000000 0.000000
	CHANNELS 3 Xposition Yposition Zposition
	End Site
	{
		OFFSET 0.000000 0.000000 0.000000
	}
}
ROOT p53
{
	OFFSET 0.000000 0.000000 0.000000
	CHANNELS 3 Xposition Yposition Zposition
	End Site
	{
		OFFSET 0.000000 0.000000 0.000000
	}
}
ROOT p54
{
	OFFSET 0.000000 0.000000 0.000000
	CHANNELS 3 Xposition Yposition Zposition
	End Site
	{
		OFFSET 0.000000 0.000000 0.000000
	}
}
ROOT p55
{
	OFFSET 0.000000 0.000000 0.000000
	CHANNELS 3 Xposition Yposition Zposition
	End Site
	{
		OFFSET 0.000000 0.000000 0.000000
	}
}
ROOT p56
{
	OFFSET 0.000000 0.000000 0.000000
	CHANNELS 3 Xposition Yposition Zposition
	End Site
	{
		OFFSET 0.000000 0.000000 0.000000
	}
}
ROOT p57
{
	OFFSET 0.000000 0.000000 0.000000
	CHANNELS 3 Xposition Yposition Zposition
	End Site
	{
		OFFSET 0.000000 0.000000 0.000000
	}
}
ROOT p58
{
	OFFSET 0.000000 0.000000 0.000000
	CHANNELS 3 Xposition Yposition Zposition
	End Site
	{
		OFFSET 0.000000 0.000000 0.000000
	}
}
ROOT p59
{
	OFFSET 0.000000 0.000000 0.000000
	CHANNELS 3 Xposition Yposition Zposition
	End Site
	{
		OFFSET 0.000000 0.000000 0.000000
	}
}
ROOT p60
{
	OFFSET 0.000000 0.000000 0.000000
	CHANNELS 3 Xposition Yposition Zposition
	End Site
	{
		OFFSET 0.000000 0.000000 0.000000
	}
}
ROOT p61
{
	OFFSET 0.000000 0.000000 0.000000
	CHANNELS 3 Xposition Yposition Zposition
	End Site
	{
		OFFSET 0.000000 0.000000 0.000000
	}
}
ROOT p62
{
	OFFSET 0.000000 0.000000 0.000000
	CHANNELS 3 Xposition Yposition Zposition
	End Site
	{
		OFFSET 0.000000 0.000000 0.000000
	}
}
ROOT p63
{
	OFFSET 0.000000 0.000000 0.000000
	CHANNELS 3 Xposition Yposition Zposition
	End Site
	{
		OFFSET 0.000000 0.000000 0.000000
	}
}
ROOT p64
{
	OFFSET 0.000000 0.000000 0.000000
	CHANNELS 3 Xposition Yposition Zposition
	End Site
	{
		OFFSET 0.000000 0.000000 0.000000
	}
}
ROOT p65
{
	OFFSET 0.000000 0.000000 0.000000
	CHANNELS 3 Xposition Yposition Zposition
	End Site
	{
		OFFSET 0.000000 0.000000 0.000000
	}
}
ROOT p66
{
	OFFSET 0.000000 0.000000 0.000000
	CHANNELS 3 Xposition Yposition Zposition
	End Site
	{
		OFFSET 0.000000 0.000000 0.000000
	}
}
ROOT p67
{
	OFFSET 0.000000 0.000000 0.000000
	CHANNELS 3 Xposition Yposition Zposition
	End Site
	{
		OFFSET 0.000000 0.000000 0.000000
	}
}
ROOT p68
{
	OFFSET 0.000000 0.000000 0.000000
	CHANNELS 3 Xposition Yposition Zposition
	End Site
	{
		OFFSET 0.000000 0.000000 0.000000
	}
}
ROOT p69
{
	OFFSET 0.000000 0.000000 0.000000
	CHANNELS 3 Xposition Yposition Zposition
	End Site
	{
		OFFSET 0.000000 0.000000 0.000000
	}
}
ROOT p70
{
	OFFSET 0.000000 0.000000 0.000000
	CHANNELS 3 Xposition Yposition Zposition
	End Site
	{
		OFFSET 0.000000 0.000000 0.000000
	}
}
MOTION
Frames: 5
Frame Time: 0.010000000
1.389419 1.542580 -0.029469 1.373354 1.590391 -0.062964 1.378235 1.591027 0.008408 1.288859 1.600924 -0.102218 1.301999 1.600884 0.065553 1.200214 1.405025 -0.196719 1.207613 1.422138 0.168444 1.122981 1.137346 -0.286304 1.139278 1.160010 0.266267 1.169855 0.873481 -0.091524 1.168157 0.873681 0.068809 1.158181 0.449102 -0.168536 1.144125 0.450551 0.147745 1.056082 0.052366 -0.194947 1.039674 0.055998 0.192218 1.222018 -0.003025 -0.249582 1.163279 -0.009464 -0.298790 1.020475 0.004046 -0.187446 1.205126 -0.005021 0.244534 1.149865 -0.008472 0.294647 1.001582 0.008011 0.188602 1.268140 0.818853 0.221592 1.265820 0.841820 0.232182 1.259208 0.873899 0.243715 1.243888 0.895459 0.260917 1.267567 0.771669 0.253925 1.273755 0.786006 0.266100 1.278491 0.806402 0.278826 1.275708 0.844970 0.282973 1.231822 0.773066 0.251863 1.241142 0.782030 0.268675 1.251542 0.796323 0.287185 1.259434 0.836759 0.301348 1.221041 0.767547 0.272803 1.228340 0.779873 0.286765 1.237512 0.799266 0.301617 1.239468 0.837636 0.308021 1.197777 0.786779 0.281694 1.202747 0.797181 0.295709 1.210203 0.811417 0.306108 1.218502 0.840029 0.310166 1.229520 0.912037 0.293809 1.263316 0.785074 -0.247398 1.259385 0.808076 -0.256693 1.250787 0.840524 -0.266545 1.232302 0.863010 -0.282091 1.263205 0.736992 -0.280385 1.268135 0.752071 -0.291311 1.271216 0.773413 -0.302491 1.265076 0.812007 -0.304531 1.235820 0.738954 -0.273303 1.241641 0.748472 -0.290165 1.247665 0.763592 -0.308623 1.247150 0.804709 -0.321603 1.212171 0.743513 -0.283778 1.216808 0.752661 -0.300256 1.223528 0.769222 -0.318095 1.226134 0.806467 -0.326923 1.190328 0.756578 -0.298006 1.192833 0.766937 -0.312236 1.198137 0.781054 -0.323268 1.204405 0.809721 -0.327778 1.211208 0.880452 -0.312678 1.087411 1.122466 -0.299190 1.105479 1.143824 0.283496 1.155365 1.133673 -0.272220 1.168471 1.159347 0.249785 1.220277 1.436905 -0.194719 1.226810 1.453991 0.166485 1.239343 1.461421 -0.014961
1.389532 1.542720 -0.029200 1.373391 1.590734 -0.062764 1.378118 1.591308 0.008651 1.288723 1.601477 -0.102192 1.301275 1.601306 0.065436 1.198979 1.404723 -0.196483 1.206694 1.422543 0.168324 1.122487 1.137166 -0.286335 1.138622 1.160510 0.266491 1.169140 0.873506 -0.091349 1.167048 0.873702 0.068929 1.157538 0.448960 -0.168367 1.142581 0.450339 0.147786 1.055404 0.052178 -0.194874 1.039189 0.055971 0.192234 1.221706 -0.002494 -0.249808 1.162803 -0.009277 -0.298933 1.019713 0.003878 -0.187396 1.204777 -0.004601 0.244173 1.149678 -0.008364 0.294440 1.001291 0.008034 0.188652 1.268709 0.818108 0.222207 1.266017 0.841067 0.232788 1.259201 0.873214 0.244177 1.243771 0.894996 0.261234 1.266883 0.770949 0.254835 1.273119 0.785345 0.266884 1.277946 0.805793 0.279461 1.275401 0.844441 0.283410 1.231209 0.772480 0.252739 1.240545 0.781575 0.269462 1.250989 0.795953 0.287869 1.259024 0.836445 0.301834 1.220327 0.767194 0.273658 1.227668 0.779592 0.287545 1.236892 0.799076 0.302277 1.238988 0.837500 0.308531 1.197350 0.786710 0.282309 1.202278 0.797177 0.296273 1.209712 0.811437 0.306641 1.217969 0.840032 0.310696 1.229389 0.911961 0.294024 1.263909 0.784518 -0.247174 1.259594 0.807481 -0.256543 1.250699 0.839918 -0.266472 1.232218 0.862480 -0.282083 1.262745 0.736428 -0.280644 1.267774 0.751560 -0.291593 1.271006 0.772959 -0.302784 1.265099 0.811599 -0.304788 1.235575 0.738348 -0.273773 1.241524 0.747953 -0.290643 1.247686 0.763196 -0.309086 1.247274 0.804412 -0.321935 1.212105 0.743162 -0.284288 1.216862 0.752330 -0.300768 1.223693 0.768940 -0.318580 1.226289 0.806222 -0.327288 1.190908 0.756281 -0.298370 1.193331 0.766646 -0.312630 1.198516 0.780788 -0.323680 1.204594 0.809487 -0.328159 1.211251 0.880156 -0.312712 1.087058 1.122239 -0.299304 1.104777 1.144384 0.283737 1.154793 1.133525 -0.272192 1.167832 1.159793 0.249995 1.219203 1.436670 -0.194586 1.225739 1.454388 0.166348 1.238401 1.461561 -0.014981
1.389598 1.542810 -0.029198 1.373273 1.590888 -0.062812 1.378198 1.591501 0.008637 1.288480 1.601536 -0.102229 1.301058 1.601477 0.065256 1.198900 1.404619 -0.196443 1.206345 1.422736 0.168126 1.122301 1.137331 -0.286266 1.138792 1.160664 0.266401 1.168903 0.873689 -0.091519 1.166937 0.873914 0.068815 1.157367 0.448981 -0.168635 1.142333 0.450264 0.147716 1.055560 0.052133 -0.194766 1.039334 0.055841 0.192346 1.221835 -0.002250 -0.249771 1.162931 -0.009170 -0.298869 1.019853 0.003824 -0.187235 1.204946 -0.004409 0.244131 1.150011 -0.008351 0.294513 1.001496 0.007908 0.188844 1.269654 0.817513 0.222382 1.266738 0.840461 0.232880 1.259644 0.872622 0.244180 1.244021 0.894505 0.261186 1.267583 0.770305 0.254939 1.273639 0.784768 0.266961 1.278284 0.805275 0.279515 1.275627 0.843952 0.283454 1.232094 0.771946 0.252882 1.241263 0.781134 0.269593 1.251522 0.795581 0.287989 1.259297 0.836099 0.301916 1.221141 0.766872 0.273825 1.228364 0.779302 0.287708 1.237403 0.798828 0.302417 1.239305 0.837258 0.308620 1.198164 0.786520 0.282514 1.202934 0.797017 0.296451 1.210234 0.811286 0.306790 1.218339 0.839862 0.310783 1.229530 0.911693 0.293980 1.264415 0.784569 -0.246801 1.259849 0.807476 -0.256348 1.250785 0.839862 -0.266386 1.232277 0.862402 -0.282010 1.262114 0.736125 -0.281082 1.267223 0.751366 -0.291931 1.270580 0.772857 -0.302993 1.264896 0.811525 -0.304832 1.234687 0.737818 -0.274292 1.240768 0.747615 -0.291061 1.247110 0.763056 -0.309367 1.247007 0.804379 -0.322020 1.211238 0.742921 -0.284792 1.216129 0.752173 -0.301175 1.223145 0.768875 -0.318860 1.225969 0.806208 -0.327416 1.190648 0.756167 -0.298563 1.193048 0.766562 -0.312808 1.198201 0.780737 -0.323847 1.204239 0.809468 -0.328324 1.211357 0.880156 -0.312587 1.086812 1.122427 -0.299250 1.105000 1.144567 0.283634 1.154656 1.133672 -0.272121 1.167948 1.159922 0.249900 1.219061 1.436593 -0.194589 1.225308 1.454562 0.166129 1.238092 1.461556 -0.015119
1.390796 1.542686 -0.029899 1.374151 1.590871 -0.063333 1.379324 1.591354 0.007980 1.288702 1.601714 -0.102420 1.301740 1.601360 0.064802 1.199270 1.404434 -0.197039 1.206898 1.422123 0.167872 1.123149 1.137280 -0.286753 1.139357 1.160260 0.266416 1.169976 0.873337 -0.091945 1.167849 0.873484 0.068204 1.158069 0.448946 -0.168790 1.143270 0.450247 0.146901 1.056280 0.052563 -0.195221 1.039829 0.056028 0.191997 1.221950 -0.002216 -0.249708 1.163618 -0.009010 -0.299117 1.020660 0.004375 -0.187836 1.206480 -0.004110 0.243588 1.151479 -0.008072 0.293892 1.001804 0.008109 0.188569 1.270326 0.817440 0.222561 1.267400 0.840413 0.232955 1.260390 0.872594 0.244145 1.244856 0.894505 0.261068 1.267700 0.770170 0.255085 1.273895 0.784719 0.267042 1.278714 0.805302 0.279515 1.276294 0.844011 0.283348 1.232114 0.771669 0.253009 1.241428 0.780982 0.269668 1.251874 0.795555 0.287993 1.259946 0.836160 0.301792 1.221161 0.766674 0.273896 1.228535 0.779202 0.287739 1.237770 0.798827 0.302388 1.239941 0.837302 0.308482 1.198279 0.786345 0.282585 1.203183 0.796918 0.296462 1.210637 0.811250 0.306743 1.218951 0.839878 0.310636 1.230529 0.911740 0.293815 1.264163 0.784349 -0.246598 1.259567 0.807268 -0.256125 1.250541 0.839671 -0.266200 1.232150 0.862266 -0.281875 1.261624 0.735880 -0.280600 1.266771 0.751135 -0.291502 1.270193 0.772644 -0.302624 1.264644 0.811331 -0.304554 1.234203 0.737547 -0.273924 1.240338 0.747393 -0.290701 1.246753 0.762875 -0.309028 1.246798 0.804225 -0.321735 1.210779 0.742762 -0.284454 1.215737 0.752041 -0.300842 1.222834 0.768764 -0.318538 1.225786 0.806101 -0.327148 1.190521 0.756114 -0.298218 1.192912 0.766517 -0.312495 1.198045 0.780688 -0.323568 1.204074 0.809404 -0.328074 1.211417 0.880072 -0.312537 1.087667 1.122416 -0.299738 1.105523 1.144119 0.283652 1.155412 1.133598 -0.272565 1.168553 1.159567 0.249899 1.219436 1.436441 -0.195098 1.225746 1.453990 0.165861 1.238509 1.461361 -0.015542
1.391517 1.542688 -0.030616 1.374793 1.590740 -0.064204 1.380099 1.591335 0.007137 1.289531 1.601193 -0.103576 1.302677 1.601105 0.063615 1.200661 1.403925 -0.197891 1.207901 1.422567 0.166476 1.123986 1.136585 -0.287350 1.140531 1.160555 0.264787 1.170577 0.873681 -0.092868 1.168745 0.873893 0.067353 1.158762 0.449131 -0.170089 1.144015 0.450344 0.145988 1.057225 0.052514 -0.195799 1.041090 0.056009 0.191838 1.223366 -0.002190 -0.250258 1.164575 -0.009089 -0.299454 1.021519 0.004256 -0.188234 1.206900 -0.004612 0.242340 1.152056 -0.008528 0.293139 1.003186 0.008159 0.188696 1.272113 0.817055 0.221323 1.269124 0.840028 0.231608 1.261806 0.872195 0.242734 1.246002 0.894119 0.259653 1.270407 0.769902 0.254028 1.276314 0.784446 0.265954 1.280785 0.805032 0.278382 1.277898 0.843700 0.282162 1.234930 0.771503 0.252149 1.243992 0.780820 0.268761 1.254123 0.795396 0.287021 1.261638 0.835969 0.300655 1.224006 0.766647 0.273162 1.231127 0.779159 0.286919 1.239998 0.798762 0.301439 1.241657 0.837177 0.307353 1.200660 0.786321 0.281900 1.205376 0.796916 0.295673 1.212634 0.811240 0.305823 1.220691 0.839803 0.309511 1.231394 0.911464 0.292351 1.266166 0.784357 -0.247540 1.261482 0.807210 -0.257231 1.252327 0.839516 -0.267372 1.233795 0.861919 -0.282976 1.263229 0.735575 -0.282177 1.268346 0.750874 -0.293026 1.271733 0.772405 -0.304086 1.266129 0.811071 -0.305878 1.235557 0.737139 -0.275272 1.241677 0.746989 -0.292047 1.248096 0.762479 -0.310364 1.248213 0.803831 -0.323042 1.212217 0.742218 -0.285750 1.217129 0.751489 -0.302133 1.224200 0.768209 -0.319828 1.227177 0.805567 -0.328411 1.191975 0.755421 -0.299291 1.194335 0.765796 -0.313606 1.199446 0.779972 -0.324724 1.205461 0.808733 -0.329285 1.212907 0.879544 -0.313494 1.088439 1.121634 -0.300212 1.106676 1.144520 0.281981 1.156362 1.132983 -0.273285 1.169735 1.159759 0.248312 1.220659 1.435952 -0.196062 1.226866 1.454296 0.164450 1.239606 1.461163 -0.016652
